<svg fill="none" height="9" viewBox="0 0 12 9" width="12" xmlns="http://www.w3.org/2000/svg"><path d="m.176583 5.08816c.170316.02712.344454.04232.510522.08505.191128.0493.386075.10353.559365.19186.15163.07765.28075.2009.41029.31388.08324.07272.1495.16393.22213.24733.01911.02177.03908.04478.05139.07025.09811.19762.15545.20789.30453.053.09174-.09531.18688-.18734.27523-.28553.14865-.16557.28669-.34018.44086-.50041.10194-.10599.22426-.19391.33681-.29087.25824-.22227.52199-.43919.77258-.66967.1614-.14873.34998-.26089.51732-.39975.29051-.24075.57041-.49383.86687-.72719.52878-.41618 1.06606-.8225 1.60164-1.23088.22341-.17049.44937-.33812.67702-.50328.06456-.04683.14356-.07559.20897-.12202.45445-.32004.91231-.635976 1.357-.968757.12784-.095726.30283-.154887.35847-.3299049.00425-.01314689.04969-.02506126.0722-.02013118.11213.02300708.22256.05587428.33512.07641638.0973.0176661.2047.0053409.2943.0390297.2103.078881.4362.060805.6528.131469.2158.070254.4167.164747.6172.25883.0989.046425.1915.147081.2391.245271.0705.145438.1036.309367.1406.467947.008.03492-.0289.08422-.0544.1212-.0671.09737-.1869.1175-.2829.17296-.1427.08258-.282.1705-.4221.25719-.2268.1401-.4553.27773-.6783.42358-.1733.11298-.3381.23746-.5084.35414-.10494.0719-.21494.1364-.319.20871-.30411.21117-.60906.42193-.90977.63844-.33978.24445-.67574.49383-1.01127.74362-.10321.07683-.19835.16434-.30113.2424-.03228.02465-.07985.02917-.11553.05053-.05734.03451-.11638.06903-.16479.11381-.14484.13434-.28117.27649-.42728.4096-.11.10025-.22426.19844-.34573.28513-.23148.16516-.41623.3792-.63794.55299-.09641.07559-.20642.13558-.31005.20254-.00637.00411-.01317.00822-.01741.01356-.06371.07806-.1202.15242-.22001.20624-.10916.05834-.18731.17338-.2731.26869-.14908.16639-.30113.33073-.43705.50657-.18603.24116-.35634.49342-.53643.73869-.08452.11545-.17966.22391-.26333.34018-.02718.03779-.02718.09326-.05266.1327-.17117.26581-.28202.57846-.59208.73951-.03652.0189-.07942.0304-.12104.03698-.28967.04724-.55979.0115-.83077-.1175-.26291-.12531-.43832-.32703-.61798-.53163-.16267-.18529-.32704-.37058-.47229-.5686-.081552-.11093-.129971-.24569-.184761-.37305-.079849-.18529-.14738-.37551-.228079-.56079-.14016-.32128-.283293-.64133-.430248-.95973-.091742-.19926-.1546012-.40632-.2149125-.61544-.0365266-.12613-.0263331-.14502.1091545-.14872.015715-.00041.03143 0 .047145 0 .000425-.00616.001274-.01109.002124-.01644z" fill="#000"/></svg>