<svg fill="none" viewBox="0 0 17 16" xmlns="http://www.w3.org/2000/svg"><path d="m8.24998 0c-2.1745 0-2.4455.0105-3.2965.0465-.8545.042-1.4325.1745-1.9425.3725-.53377.20151-1.01717.517008-1.4165.9245-.40863.3984-.724305.88207-.924503 1.4165-.198.51-.3305 1.088-.3725 1.9425-.0385.8515-.0465 1.122-.0465 3.2965s.0105 2.4455.0465 3.2965c.042.852.1745 1.4325.3725 1.9425.20151.5338.517003 1.0172.924503 1.4165.3984.4086.88206.7243 1.4165.9245.51.1955 1.0905.3305 1.9425.3725.8515.0385 1.122.0465 3.2965.0465 2.17452 0 2.44552-.0105 3.29652-.0465.852-.042 1.4325-.1775 1.9425-.3725.5337-.2015 1.0171-.517 1.4165-.9245.4091-.398.7249-.8818.9245-1.4165.1955-.51.3305-1.0905.3725-1.9425.0385-.8515.0465-1.122.0465-3.2965s-.0105-2.4455-.0465-3.2965c-.042-.852-.1775-1.4355-.3725-1.9425-.2015-.53377-.517-1.01717-.9245-1.4165-.398-.409155-.8818-.72491-1.4165-.9245-.51-.198-1.0905-.3305-1.9425-.3725-.8515-.0385-1.122-.0465-3.29652-.0465zm0 1.44c2.13552 0 2.39052.0105 3.23452.0465.7785.0365 1.2025.1665 1.484.2765.348.12846.663.33293.922.5985.2651.25791.4688.57217.596.9195.11.2815.24.7055.2765 1.484.036.844.0465 1.0995.0465 3.2345s-.0105 2.3905-.0495 3.2345c-.042.7785-.172 1.2025-.2815 1.484-.1515.3755-.3205.638-.5995.922-.2599.2639-.5747.4674-.922.596-.278.11-.708.24-1.4895.2765-.8485.036-1.0985.0465-3.23952.0465-2.141 0-2.3905-.0105-3.24-.0495-.7785-.042-1.208-.172-1.4895-.2815-.38-.1515-.6405-.3205-.9195-.5995-.2815-.2815-.4605-.5495-.5985-.922-.112-.278-.24-.708-.2815-1.4895-.0285-.8385-.042-1.0985-.042-3.2295 0-2.13.0135-2.3905.042-3.2395.0415-.7815.1695-1.2105.2815-1.4895.138-.3805.3175-.6405.5985-.922.2785-.2785.5395-.4585.9195-.5995.2815-.1095.7005-.2395 1.482-.2785.8485-.0305 1.0985-.0415 3.2365-.0415zm0 2.4535c-.53933-.0002-1.07341.10589-1.57173.31219-.49831.2063-.95108.50877-1.33245.89014-.38136.38136-.68384.83414-.89014 1.33245s-.31238 1.03239-.31218 1.57172c-.0002.53933.10588 1.07341.31218 1.57172.2063.49828.50878.95108.89014 1.33248.38137.3813.83414.6838 1.33245.8901.49832.2063 1.0324.3124 1.57173.3122.53933.0002 1.07341-.1059 1.57172-.3122.4983-.2063.9511-.5088 1.3325-.8901.3813-.3814.6838-.8342.8901-1.33248.2063-.49831.3124-1.03239.3122-1.57172.0002-.53933-.1059-1.07341-.3122-1.57172s-.5088-.95109-.8901-1.33245c-.3814-.38137-.8342-.68384-1.3325-.89014-.49831-.2063-1.03239-.31239-1.57172-.31219zm0 6.773c-1.474 0-2.6665-1.1925-2.6665-2.6665s1.1925-2.6665 2.6665-2.6665 2.66652 1.1925 2.66652 2.6665-1.19252 2.6665-2.66652 2.6665zm5.23202-6.937c-.0003.25483-.1017.49914-.282.67924s-.4247.28126-.6795.28126c-.126 0-.2508-.02482-.3672-.07304s-.2222-.11889-.3113-.20799-.1598-.19487-.208-.31129c-.0482-.11641-.073-.24118-.073-.36718s.0248-.25077.073-.36718c.0482-.11642.1189-.22219.208-.31129s.1949-.15977.3113-.20799.2412-.07304.3672-.07304c.5285 0 .9615.43.9615.9585z" fill="#292929"/></svg>