<svg width="20" height="20" viewBox="0 0 20 20" fill="none" xmlns="http://www.w3.org/2000/svg">
<path d="M6.66797 15.8333H4.16797V7.5H6.66797V15.8333ZM15.8346 15.8333H13.3346V11.3817C13.3346 10.2217 12.9213 9.64417 12.1021 9.64417C11.453 9.64417 11.0413 9.9675 10.8346 10.615C10.8346 11.6667 10.8346 15.8333 10.8346 15.8333H8.33464C8.33464 15.8333 8.36797 8.33333 8.33464 7.5H10.308L10.4605 9.16667H10.5121C11.0246 8.33333 11.8438 7.76833 12.9671 7.76833C13.8213 7.76833 14.5121 8.00583 15.0396 8.6025C15.5705 9.2 15.8346 10.0017 15.8346 11.1275V15.8333Z" fill="black"/>
<path d="M5.41667 6.6667C6.13003 6.6667 6.70833 6.10706 6.70833 5.4167C6.70833 4.72635 6.13003 4.1667 5.41667 4.1667C4.7033 4.1667 4.125 4.72635 4.125 5.4167C4.125 6.10706 4.7033 6.6667 5.41667 6.6667Z" fill="black"/>
</svg>
