<svg width="16.4rem" height="2.1rem" viewBox="0 0 164 21" fill="none" xmlns="http://www.w3.org/2000/svg">
<path d="M31.3017 9.96745C31.3017 15.4124 34.1419 19.6049 38.1003 19.6049C40.5006 19.6049 42.9159 17.7824 44.4143 14.4524L44.8466 14.6249C43.8328 18.5024 40.851 20.9774 36.505 20.9774C30.5115 20.9774 26.173 16.8449 26.173 10.4924C26.173 4.37245 30.9812 0.00744629 36.7733 0.00744629C39.2333 0.00744629 41.0001 0.704946 42.2152 1.66495L43.8328 0.164946H44.0937V6.22495H43.721C41.9244 3.10495 40.2173 0.539946 37.325 0.539946C33.6499 0.532446 31.3017 5.09995 31.3017 9.96745Z" fill="black"/>
<path d="M10.5407 0.0299072C16.4149 0.0299072 21.1038 4.40241 21.1038 10.5149C21.1038 16.6274 16.4149 20.9999 10.5407 20.9999C4.65909 20.9999 0 16.6274 0 10.5149C0 4.40241 4.65909 0.0299072 10.5407 0.0299072ZM10.5407 0.569907C6.83582 0.569907 5.12873 4.74741 5.12873 10.5149C5.12873 16.2824 6.83582 20.4524 10.5407 20.4524C14.2755 20.4524 15.9825 16.2824 15.9825 10.5149C15.9751 4.74741 14.2755 0.569907 10.5407 0.569907Z" fill="black"/>
<path d="M83.8042 0C89.6783 0 94.3672 4.3725 94.3672 10.485C94.3672 16.5975 89.6783 20.97 83.8042 20.97C77.9225 20.97 73.2634 16.5975 73.2634 10.485C73.2634 4.3725 77.9225 0 83.8042 0ZM83.8042 0.54C80.0918 0.54 78.3847 4.725 78.3847 10.4925C78.3847 16.2525 80.0918 20.43 83.8042 20.43C87.5389 20.43 89.246 16.2525 89.246 10.4925C89.2385 4.7175 87.5314 0.54 83.8042 0.54Z" fill="black"/>
<path d="M67.5084 0.322524C68.3806 0.322524 68.6862 0.240024 69.1186 0.150024L69.1484 6.28502H68.8055C67.6202 3.48002 66.9046 0.937524 63.975 0.937524H61.8355V17.2125C61.8355 21.1575 62.3499 19.9725 63.8333 20.445V20.7075H55.3202V20.445C56.7366 20.085 57.2882 20.8575 57.2882 17.2125V0.915024H55.1413C52.2191 0.915024 51.332 3.54752 50.2288 6.24752H49.8859L49.9082 0.150024C50.3406 0.240024 50.7804 0.322524 51.6451 0.322524H67.5084Z" fill="black"/>
<path d="M99.1455 20.7075V20.445C100.331 20.1075 100.935 20.8425 100.935 17.2725V3.75751C100.935 0.27751 100.182 0.67501 99.1455 0.58501V0.32251H109.157C113.331 0.32251 116.425 1.75501 116.425 5.36251C116.425 8.33251 113.764 9.96751 111.155 10.17V10.23C114.137 10.3725 117.268 11.715 117.268 15.2175C117.268 19.1775 114.055 20.7225 109.627 20.7225H99.1455V20.7075ZM105.482 9.92251H107.599C110.119 9.92251 111.878 8.45251 111.878 5.59501C111.878 2.85751 110.201 0.93001 107.629 0.93001H105.482V9.92251ZM105.482 10.47V20.1225H107.912C110.775 20.1225 112.69 18.09 112.69 15.12C112.69 12.1425 110.752 10.47 107.83 10.47H105.482Z" fill="black"/>
<path d="M128.978 17.2725C128.978 20.85 129.292 20.115 130.775 20.445V20.7075H122.605V20.445C123.954 20.235 124.431 20.5425 124.431 17.2725V3.75751C124.431 0.18751 123.805 0.73501 122.605 0.58501V0.32251H133.436C137.603 0.32251 141.107 1.86751 141.107 5.79751C141.107 9.24001 138.066 10.8375 134.681 10.8975V10.95C137.231 11.16 138.818 12.2625 139.661 14.6175L140.555 17.0625C141.867 20.9025 141.927 19.995 143.366 20.355V20.7075H137.26C136.895 19.4775 136.426 18.4875 135.993 17.235L134.83 14.2725C134.197 12.4125 133.436 11.22 131.386 11.22H128.986V17.2725H128.978ZM128.978 10.605H131.811C134.622 10.605 136.299 8.91001 136.299 5.94001C136.299 3.23251 134.704 0.93001 131.811 0.93001H128.978V10.605Z" fill="black"/>
<path d="M160.124 13.635H159.773C158.67 11.01 156.859 10.455 155.867 10.455H153.497V20.13H157.701C160.153 20.13 162.345 18.6675 163.642 14.745H163.955L163.97 20.715H147.123V20.4525C148.472 20.115 148.949 20.7075 148.949 17.28V3.75752C148.949 -0.112475 148.36 1.07252 147.123 0.585024V0.322524H162.256C163.128 0.322524 163.56 0.240024 163.993 0.150024L163.985 6.29252H163.665C162.763 3.39752 161.316 0.930024 157.693 0.930024H153.497V9.90002H155.867C157.127 9.90002 158.677 9.41253 159.773 6.76503H160.124V13.635Z" fill="black"/>
</svg>
