<svg id="Calque_1" data-name="Calque 1" xmlns="http://www.w3.org/2000/svg" width="16rem" height="5.2rem" viewBox="0 0 439.17 140.49"><path d="M361.56,308.91c-2.6-1.47-3-4-3.68-6.3-.86-2.93.4-4.66,3.21-5.53,5.42-1.67,10.71-3.65,14.72-7.94,1-1.09,1.93-2.26,2.84-3.44.68-.89,0-1.32-.7-1.71a12.09,12.09,0,0,0-10.81-.44,53.35,53.35,0,0,0-9.53,5.4c-5.83,4.08-11.34,8.62-17.21,12.63a50.43,50.43,0,0,1-20.4,8.31c-4.33.71-7.72-1.23-10.43-4.6a16.61,16.61,0,0,1-3.9-10.42c0-1-.44-1.22-1.27-1.19-.42,0-.85,0-1.28,0-4.44.06-4.18,0-3.74,4.27.6,5.73-.88,11-3.26,16-2.53,5.29-5.95,10-11.19,13-5.6,3.2-11.51,5.41-18.11,4.44a8.23,8.23,0,0,1-3.49-1.8,78.56,78.56,0,0,1-7.25-6,11.77,11.77,0,0,1-2.55-4.2c-.89-2.31,1.05-3.9,2.07-5.57a24.29,24.29,0,0,1,9.11-8.28c3.61-2.06,7.07-4.38,10.77-6.23,4.67-2.33,9.5-4.33,14.28-6.41,1-.45,1.38-.95,1-2.05-2.13-6-4.1-12-6.34-17.9-1.9-5-4.07-9.95-4.75-15.35a9.74,9.74,0,0,0-.47-1.49c-2.52,2.43-4.9,4.69-7.23,7-3.4,3.37-6.8,6.74-10.14,10.17-2.52,2.59-4.88,5.34-7.41,7.91a169.2,169.2,0,0,1-19.81,17.33c-5.46,4.05-10.68,8.42-16.1,12.53-2.57,2-5.33,3.67-8.05,5.41-2.13,1.36-7.57.68-9-1,1.87-1.33,3.84-2.55,5.61-4,5.14-4.22,10.21-8.52,15.29-12.81,6.75-5.69,13.52-11.36,20.21-17.11,3.87-3.33,7.69-6.73,11.41-10.22,6.06-5.68,12-11.43,18-17.21,3.17-3.07,6.39-6.11,9.29-9.43,1.79-2.06,2.8-4.8,4.56-6.9,3-3.62,6.36-7,9.66-10.4a2.09,2.09,0,0,1,2-.18,21.65,21.65,0,0,1,4,2.83,2,2,0,0,1-.06,1.93,54.9,54.9,0,0,1-4.73,6.1,43.74,43.74,0,0,0-7.17,9.32,19.57,19.57,0,0,0-1.16,16.52c2.11,5.86,4.65,11.56,6.92,17.36,1,2.52,1.7,5.15,2.66,7.69a1.8,1.8,0,0,0,1.43.92c1.79-.18,3.56-.8,5.34-.83,2.42,0,3-1.82,3.82-3.43,3.75-7.67,9.72-13.1,17.15-17a10.16,10.16,0,0,1,3.45-1.21,4,4,0,0,1,2.51.83,39.68,39.68,0,0,1,3,2.85c2.42,2.23,2.35,5.06,2.09,8-.48,5.2-4.53,7.27-8.42,9.13a121.42,121.42,0,0,1-12.69,4.75c-1.41.49-2.34,1.18-2.55,2.71a32.31,32.31,0,0,0-.59,3.61c-.08,2.78,1.5,4,4.2,3.44A58.25,58.25,0,0,0,338.34,293c5.57-3.92,11-8,16.59-11.92,3.95-2.8,8-5.48,12.86-6.49,5.84-1.2,10.56.54,14.33,5.13,2.38,2.88,3.62,6.15,2.05,9.6a21.69,21.69,0,0,1-5,6.91,115.07,115.07,0,0,1-10.41,7.88,13.26,13.26,0,0,1-2.9,1.18l.11.42a5.89,5.89,0,0,0,1.28-.35c4.3-2.23,8.58-4.51,12.89-6.71a30.85,30.85,0,0,1,3.22-1.19,2.14,2.14,0,0,0,.72-.32c2.6-2.32,6.14-2.71,9-4.4,3.4-2,6.82-3.91,10.31-5.72s7.1-3.68,10.63-5.54a2.88,2.88,0,0,0,.83-.73,70.24,70.24,0,0,1,13-11.51,69.47,69.47,0,0,1,14.94-8.63A21.27,21.27,0,0,1,454.06,259c1.66.28,3.18,1.93,4.56,3.19,1.77,1.6,1.55,5.09-.06,6.81a76.9,76.9,0,0,0-15.42,23.31,25.72,25.72,0,0,0-1.24,4.79c-.27,1.4.33,1.86,1.6,1.17,4.57-2.51,9.12-5.05,13.62-7.68a72.79,72.79,0,0,0,8.79-5.61c5.14-4.11,10-8.52,15-12.84,1.88-1.63,3.64-3.39,5.52-5a2.11,2.11,0,0,1,1.7-.44,5.51,5.51,0,0,1,3.46,7.76c-2.55,5.09-5.36,10-8.07,15.06a16.3,16.3,0,0,0-1.67,3.72c.82-.4,1.67-.76,2.45-1.22,6.89-4.1,13.14-9.09,19.47-14a65.68,65.68,0,0,1,8.22-5.17c1.88-1.06,3.48-.55,5.1.87,3.27,2.88,4,6.54,3.6,10.67-.4,3.63-.82,7.27-1,10.91-.11,2,.71,2.6,2.71,2.24s4-.82,5.91-1.29c4-1,8-1.75,11.69-3.59a10.08,10.08,0,0,1,3.06-.73c3.45-.47,4.24-3.51,5.51-5.89a30.13,30.13,0,0,1,9.58-10.94,60,60,0,0,1,10.62-6.08,25.37,25.37,0,0,1,8.72-1.36c2.39-.08,3.3,1.48,3.63,5l-.55.12L580,273c-.11,1-.52,2-.25,2.72,1.2,3.47.5,5.56-2.76,7.4-4.26,2.41-8.47,4.91-12.81,7.16-3.48,1.82-7.16,3.27-10.69,5a5,5,0,0,0-2.5,2.1c-.44,1.17,1.12,2.89,2.72,3.2a55.06,55.06,0,0,0,8.14,1.26,101.11,101.11,0,0,0,12.91,0c6.18-.51,12.34-1.41,18.49-2.27,3.58-.5,7.13-1.19,10.66-1.9,5.62-1.13,11.2-2.39,16.82-3.52,2.79-.56,5.61-1,8.42-1.4a4,4,0,0,1,1.15.28l-.07-1.12.41-.3,1.48,1.71c.18-.42.48-1.09.72-1.64l2.13.14.93,2.2c.76.16,1.32-.16,1-1.48a2.55,2.55,0,0,1,0-1.7A5.32,5.32,0,0,1,638.7,289c.19-.11,1,.6,1.31,1.09,1.69,2.95-.53,6.05-4.16,6.41-3.24.31-6.43,1.17-9.63,1.79-1.45.29-2.89.62-4.34.9-3.67.71-7.4,1.19-11,2.14-4.21,1.11-8.29,2.66-12.45,3.94-2.54.77-5.09,1.5-7.83.95-.51-.1-1.14.57-1.75.67-3,.48-6,.95-9,1.3-4.83.56-9.67,1.28-14.52,1.43A27.15,27.15,0,0,1,553,307.3a11,11,0,0,1-5.83-7.07c-.38-1.21-.78-1.64-2.1-1.07a54.71,54.71,0,0,1-8.32,3.21,104.62,104.62,0,0,1-13.47,2.48c-3.24.37-5.54-1.51-6.84-4.51A24.34,24.34,0,0,1,515,284.26c.28-1.14.49-2.29.74-3.43.34-1.6-.16-2.31-1.69-1.8a20.84,20.84,0,0,0-5.71,2.72c-3.1,2.24-5.88,4.91-8.92,7.23-5.2,4-10.48,7.81-15.74,11.71a4.81,4.81,0,0,1-.83.47c-3.16,1.61-4.67.85-6.42-2.25-2.65-4.69-1.17-8.9.95-13.11,1.09-2.16,2.41-4.22,3.36-6.57-.82.69-1.66,1.36-2.45,2.08-2.84,2.61-5.51,5.43-8.52,7.82A129.78,129.78,0,0,1,447.35,304c-2.78,1.39-6.06,1.25-8.24-2-1.91-2.88-3.36-5.78-2.9-9.8-2.37,1.73-4.3,3.21-6.3,4.58-2.16,1.47-4.34,2.92-6.61,4.21-5.06,2.87-7.73,2.17-11-2.71l-3.69-5.53c-2.53,1.29-5,2.56-7.44,3.8-2.69,1.36-5.43,2.64-8.1,4q-7.14,3.7-14.22,7.53c-1.82,1-3.58,2.09-5.4,3.09-.94.51-1,1.14-.45,2,3.8,5.79,4.84,12.29,4.33,19A27.05,27.05,0,0,1,373,345c-5.67,8.67-13.61,14.61-22.92,18.78a42.62,42.62,0,0,1-10.27,3.31c-4.71.78-9.73.72-13.57-2.54s-7.13-7.31-6.32-12.86c.52-3.58,2.46-6.73,4.56-9.72,7-10,15.8-18.1,25.67-25.14,3.25-2.31,6.59-4.51,9.88-6.77C360.45,309.73,360.9,309.39,361.56,308.91Zm11.09,18.8c0-.26,0-.53,0-.8-.19-3.86-.6-7.64-3-10.93-1.31-1.8-1.58-2-3.42-.91-2.4,1.37-4.91,2.58-7.2,4.11-4.24,2.85-8.66,5.54-12.44,8.93a93.08,93.08,0,0,0-18.06,21.33c-1.59,2.65-2.76,5.39-2.37,8.59.22,1.81,1.12,2.9,2.65,3.07A32.83,32.83,0,0,0,345,358.46a63.25,63.25,0,0,0,18.86-11.8C369.48,341.55,372.76,335.43,372.65,327.71Zm-81.18-32.82a10.17,10.17,0,0,0-1.93.63c-4.3,2.49-9.07,4.22-12.54,8.08-1.4,1.56-3.33,2.63-5,4a40,40,0,0,0-5,4.42,71.12,71.12,0,0,0-4.78,6.73c-1.33,2-.23,5.6,1.87,6a10.42,10.42,0,0,0,3.95.29c9-1.59,16.74-5.22,21.24-13.73C292,306.23,292.27,300.74,291.47,294.89Zm158.09-28.17a19.21,19.21,0,0,0-2.26.43c-1.26.43-2.5.91-3.72,1.42A61.33,61.33,0,0,0,426,279.42c-3.05,2.77-6.53,5.22-8.31,9.14-1.15,2.54-2.53,5.07-1.55,8.27a9,9,0,0,0,1.94-.71c4.95-3.21,10-6.3,14.75-9.75,3.93-2.85,8-5.66,10.48-10.08.85-1.53,1.87-3,2.83-4.43S448.22,268.72,449.56,266.72Zm105.36,20c.34.11.47.19.53.16,7-3.43,14-6.85,21-10.34a1.42,1.42,0,0,0,.44-1.33,1.39,1.39,0,0,0-1.2-.69,33.84,33.84,0,0,0-6.37,1.33c-5,1.87-8.61,5.78-12.73,9A13.5,13.5,0,0,0,554.92,286.77Zm-225.36-9.85c-2.47.33-8.09,4.63-10,7.59C323.57,282.52,327.17,280.84,329.56,276.92Z" transform="translate(-201.42 -227)"/><path d="M353.13,242.43c1.05,3.19-.85,4.93-3.12,6.36-5.71,3.61-11.25,7.62-17.3,10.55-5.3,2.57-11.16,4.08-16.88,5.67-1.48.41-3.41-.47-5-1-1.13-.39-1-1.48.11-2.1,4.41-2.45,8.85-4.87,13.28-7.29q8-4.41,16.1-8.81c2-1.1,4-2.15,6.09-3.17A7.1,7.1,0,0,1,353.13,242.43Z" transform="translate(-201.42 -227)"/></svg>