<svg width="20" height="20" viewBox="0 0 20 20" fill="none" xmlns="http://www.w3.org/2000/svg">
<path d="M17.3346 6.08716C16.7955 6.32846 16.2152 6.49122 15.6064 6.56406C16.228 6.18938 16.7047 5.59588 16.9294 4.88788C16.348 5.23529 15.7043 5.48737 15.0187 5.62346C14.47 5.03476 13.6878 4.66667 12.8224 4.66667C11.1608 4.66667 9.81359 6.02302 9.81359 7.6962C9.81359 7.93329 9.84008 8.1644 9.89159 8.38651C7.39073 8.26002 5.1733 7.05414 3.68915 5.2212C3.43014 5.66842 3.28187 6.18878 3.28187 6.74451C3.28187 7.79541 3.81301 8.72282 4.62043 9.26596C4.1274 9.25008 3.66325 9.11369 3.25746 8.88678C3.25716 8.89937 3.25716 8.91226 3.25716 8.92515C3.25716 10.3927 4.29442 11.6169 5.67109 11.8956C5.41862 11.9646 5.15275 12.0017 4.87825 12.0017C4.68414 12.0017 4.49568 11.9829 4.31199 11.9472C4.69516 13.1507 5.80625 14.0268 7.12278 14.0511C6.09296 14.8637 4.79579 15.3481 3.38578 15.3481C3.14313 15.3481 2.90347 15.3337 2.66797 15.3055C3.99998 16.1655 5.58147 16.6667 7.28057 16.6667C12.8155 16.6667 15.8419 12.0506 15.8419 8.0472C15.8419 7.91591 15.8392 7.78492 15.8335 7.65483C16.4212 7.22859 16.9315 6.69475 17.3346 6.08716Z" fill="black"/>
</svg>
