<svg version="1" xmlns="http://www.w3.org/2000/svg" width="1365.333" height="1365.333" viewBox="0 0 1024.000000 1024.000000"><path d="M489.9 70.4c-.2.2-3.9.6-8.1 1-7.7.6-20.6 2.3-25 3.2-1.3.2-3.6.7-5.3.9-4.6.7-7.4 1.3-8.3 1.8-.4.3-2.5.8-4.7 1.1-4.5.7-17.2 4.4-28.5 8.3-17.7 6-35.6 14.4-51.5 24-11.8 7.1-12.7 7.7-13.9 8.6-.6.4-4 2.9-7.6 5.5-3.6 2.6-7 5.1-7.7 5.7-.6.5-3.3 2.8-6 5-4.5 3.7-25.2 24.2-29.9 29.6-1.1 1.3-4.6 5.8-7.7 9.9-3.2 4.1-6 7.9-6.5 8.5-2.4 3.2-11.5 18.2-15.1 25-4.2 7.9-12.2 25.9-12.3 27.5 0 .3-.9 2.7-2 5.5-1.1 2.7-2.2 5.7-2.4 6.5-.2.8-1 4-1.9 7-1.8 6.2-2.3 8.3-3.1 12.4-.2 1.6-.6 3.2-.8 3.5-.2.3-.7 2.6-1 5.1-.3 2.5-.8 5.4-1 6.5-.5 2.6-1.6 11.6-2.1 17.5s-.5 33 0 40c.7 9.5 1.5 17.5 2.1 20.1.3 1.3.7 3.7.9 5.4 1.4 10.9 10.3 42.3 12.6 45 .5.5.9 1.5.9 2.2 0 1.9 8.7 19.4 14.5 29.1 5.1 8.6 15.9 23.4 22.2 30.5 5.8 6.3 21 21.2 25.5 24.9 2.2 1.8 5.1 4.3 6.4 5.5 1.3 1.3 2.7 2.3 3.2 2.3s1.5.7 2.3 1.6c2.7 3.3 27.6 19.8 41.4 27.4 7.8 4.3 26.4 14 27.3 14.1.4.1 5 2.2 10.2 4.6 5.2 2.5 12.3 5.5 15.8 6.9 3.5 1.3 6.9 2.7 7.5 3.1.7.4 1.7.8 2.2.9.6.1 6.6 2.5 13.5 5.2s18.6 7.3 26 10.2c66.3 25.8 85 34.4 110.5 50.8 19.5 12.5 40.1 31.5 50.2 46.3 10.7 15.6 20.3 39.7 21.8 54.4.1.5.5 3.4.9 6.4 1.2 7.9 1.5 28.3.5 30.3-.5.9-.5 1.8-.1 2 1.1.4-1.4 19.5-3.8 28.7-2.7 10-2.8 10.6-3 10.8-.2.2-.3.6-.4 1-.8 4.6-7.4 18-13.3 27-6.3 9.6-20.3 23.3-29.8 29-13.1 8-27.7 14.1-40 16.8-20 4.5-31.6 5.8-52 5.8-12.1.1-27.1-.8-34-1.9-21.6-3.4-46.5-10.1-60.5-16.2-7.3-3.2-25.7-12.3-31-15.3-5.8-3.4-23.4-15.3-25.6-17.2-.6-.7-2.6-2.3-4.4-3.7-8.2-6.3-19.7-17.5-28-27-3.6-4.1-6.8-7.7-7.1-8-.6-.5-14.5-20.1-16.6-23.6-3.8-6.1-9.7-17-9.5-17.7.1-.4-.2-.7-.7-.7-.7 0-2.1-2.7-3.6-7-.1-.3-1.3-3.1-2.8-6.2-2.4-5.5-9.2-23.3-10.3-27.3-5.3-19.5-8.6-35.3-9.9-47-.3-2.8-.8-6.8-1-9-.3-2.2-.8-10.5-1.1-18.5-.5-12.2-.9-14.9-2.6-17.2-1.1-1.6-2.7-2.8-3.7-2.8-.9 0-2.1-.4-2.7-.9-1.1-1.2-12.1-3-18.9-3.1-14.1-.3-23.9 1.3-29.3 4.8-5.5 3.6-5.4 2-4.7 70.5.4 34.8.8 100.4 1 146 .3 92.5-.3 85.7 7.6 89.8 7.6 3.8 21 5.3 34 3.6 10.5-1.3 16.9-7.6 18.4-18.4.3-2.1.8-4.9 1-6.3.3-1.4.7-4 1-5.9.8-4.7 3.1-8.8 6.2-10.8 3.1-2.1 4.4-2.3 10.3-2.3 8.1-.1 10.4.8 28 11 6.3 3.7 12.6 7.3 14 8.1 1.4.8 2.7 1.6 3 1.9 2.5 2.5 35.3 18.4 47.5 22.9 3.3 1.3 6.9 2.7 8 3.1 4.5 1.9 25.1 7.8 33 9.5 6.2 1.4 14.1 2.8 15.8 2.8.9.1 1.7.4 1.7.7 0 .3 1.5.6 3.3.6 1.7.1 4.8.4 6.7.7 17.7 3 38.9 4.2 72 4.2 15.1 0 31.1-.4 35.5-.8 14-1.4 15.9-1.6 20.5-2.3 2.5-.4 5.4-.8 6.5-.9 1.1-.1 4.5-.7 7.5-1.3 3-.6 6.6-1.4 8-1.6 20.1-3.6 47.9-12.4 68.8-21.8 3.5-1.5 6.8-2.8 7.3-2.8s.9-.5.9-1c0-.6.7-1 1.6-1 1.6 0 19.7-9.7 24.6-13.1 1.4-1.1 3.1-1.9 3.7-1.9.6 0 1.1-.5 1.1-1 0-.6.5-1 1-1 1.4 0 9.3-5.6 21.6-15.2 9.6-7.4 25.9-22.8 33.3-31.4 5.6-6.4 17.6-22.5 21.2-28.5 1.9-3 4-6.4 4.6-7.5 7.8-12.2 21.8-46.2 24.8-60.2.3-1.2.7-3.2 1.1-4.4.3-1.3.7-3.3 1-4.6.2-1.2.6-3.2.8-4.5.3-1.2.7-3.2 1-4.4.2-1.1.8-4.3 1.2-7 .3-2.6.8-5.7 1-6.8 1.9-10 2.6-51.3 1.1-68.3-.8-8.9-1-10.6-2.2-16.2-.3-1.4-.7-4.1-.9-6-2.9-21.9-14.7-55.7-26.9-76.5-5.5-9.4-10.2-16.8-13.2-20.7-1.1-1.4-3.1-4.1-4.5-5.9-20.6-27.5-54.4-55.8-92.5-77.4-8.5-4.8-38-19.8-39.5-20-.3-.1-2.2-.9-4.2-1.8-2.1-.9-5.5-2.4-7.5-3.3-2.1-.9-5.1-2.2-6.8-2.9-3.4-1.4-14.6-5.9-34-13.4-7.1-2.8-21.7-8.4-32.2-12.6-10.6-4.1-19.9-7.5-20.7-7.5-.7 0-1.9-.7-2.6-1.5-.7-.9-1.5-1.4-1.7-1.1-1.5 1.5-59.4-25.1-66.8-30.7-.5-.4-3.9-2.6-7.5-4.8-3.6-2.3-6.7-4.4-7-4.8-.3-.3-2.4-1.9-4.8-3.5-4.7-3.2-24.2-22.2-24.2-23.6 0-.5-.6-1.5-1.4-2.3-3.4-3.4-13.1-20.6-12.8-22.7 0-.3-.3-1-.8-1.5-.7-1-3-7.6-2.9-8.5 0-.3-.5-1.9-1.1-3.5-1.5-3.9-1.8-5.2-3.9-18.5-.9-5.8-.7-34.8.3-39 .4-1.4.9-4.1 1.2-6 3.3-21 13-40.9 27.3-56.4 14.6-15.6 42.2-29.3 65-32.2 2.5-.3 4.8-.7 5.2-1 4.4-2.7 60.7-2.2 66 .6.9.5 1.9.7 2.2.4.9-1 22 4.6 33.2 8.8 11.6 4.3 31.1 14.1 33.5 16.8.3.3 1.9 1.4 3.5 2.4 11 7 29.8 25.2 37.3 36.1 1.5 2.2 3.4 4.8 4.3 5.8 6.5 7.2 23.3 42.6 26.4 55.7.2.8 1.1 4.3 2 7.7.9 3.5 1.8 7.3 2 8.5.3 1.3.7 3.4 1 4.8 1.2 5.5 1.5 7.7 2.1 12.5.3 2.7.7 5.6.9 6.3.3.7.7 6.5 1.1 13 1.4 25.3.9 22.1 3.7 25.3 5.4 6.4 15.1 9 31.2 8.5 14-.4 19.7-2.3 23.6-7.7 2.7-3.8 2.7-3.6 1.4-54.9-.3-15.1-.7-37.1-.8-48.7-.1-11.7-.5-21.3-.9-21.3s-.4-.8-.1-1.7c.4-1 .6-3.3.5-5.3-.1-1.9-.4-29.5-.6-61.3-.5-63.7-.2-60.9-6.8-64-4.6-2.1-8.6-2.8-21.8-3.4-15.8-.7-17.8-.5-21.8 1.6-2.3 1.2-4.8 6.2-5.6 11.1-1.8 10.9-2.8 13.4-6.7 16.3-3.3 2.4-12.4 2.6-18.4.4-6.3-2.3-15.9-7-16.7-8.2-.4-.5-.8-.7-.8-.3 0 .4-3-.7-6.7-2.4-14.5-6.5-45.1-16-62.8-19.4-1.1-.2-3.1-.6-4.5-.9-4.3-.9-7.4-1.5-10.5-2-1.6-.2-4.1-.6-5.5-.9-2.7-.5-9.4-1.4-15-2.1-4.9-.5-13.9-1.7-17.5-2.2-3.9-.5-56.1-1.4-56.6-.9z"/></svg>